<svg width="79.536" height="79.536" xmlns="http://www.w3.org/2000/svg">

 <g>
  <title>background</title>
  <rect fill="none" id="canvas_background" height="402" width="582" y="-1" x="-1"/>
 </g>
 <g>
  <title>Layer 1</title>
  <g id="svg_1">
   <path id="svg_2" fill="#ffffff" d="m66.327003,36.534l-53.122004,0c0,-8.993999 7.291,-16.280001 16.280001,-16.280001l4.554001,0l0,-20.254l11.452,0l0,20.249001l4.556999,0c8.987999,0 16.279003,7.285999 16.279003,16.285zm-23.848003,6.491001l0,-0.026001c0,-1.495998 -1.214001,-2.700001 -2.713001,-2.700001c-1.501999,0 -2.716,1.229 -2.716,2.727001c0,1.496002 1.214001,2.713001 2.716,2.713001c1.5,-0.001003 2.713001,-1.218002 2.713001,-2.714001zm0,22.556l0,-0.056999c0,-1.501999 -1.214001,-2.693001 -2.713001,-2.693001c-1.501999,0 -2.716,1.242996 -2.716,2.75c0,1.496002 1.214001,2.712997 2.716,2.712997c1.5,0 2.713001,-1.216995 2.713001,-2.712997zm0,-11.273003l0,-0.062c0,-1.496998 -1.214001,-2.682999 -2.713001,-2.682999c-1.501999,0 -2.716,1.237999 -2.716,2.743999c0,1.492001 1.214001,2.714001 2.716,2.714001c1.5,0 2.713001,-1.221001 2.713001,-2.713001zm0,22.514l0,-0.029999c0,-1.497002 -1.214001,-2.703003 -2.713001,-2.703003c-1.501999,0 -2.716,1.232002 -2.716,2.733002c0,1.501999 1.214001,2.713997 2.716,2.713997c1.5,0.000008 2.713001,-1.211998 2.713001,-2.713997zm29.150997,-0.528c1.398003,-0.554001 2.066002,-2.133003 1.512001,-3.520996l-0.021004,-0.058006c-0.554001,-1.392998 -2.123001,-2.055 -3.510994,-1.474998c-1.403,0.549004 -2.061005,2.153 -1.502007,3.541c0.425003,1.066002 1.435005,1.709 2.517006,1.709c0.332001,0.000999 0.674004,-0.065994 1.004997,-0.195999zm-3.743996,-10.241997c1.393997,-0.549004 2.066002,-2.132999 1.513,-3.521l-0.021004,-0.057999c-0.558998,-1.393002 -2.132996,-2.065002 -3.515999,-1.48c-1.396996,0.553997 -2.060997,2.158997 -1.495995,3.546997c0.418999,1.062004 1.438995,1.709 2.516998,1.709c0.329994,0 0.671997,-0.062004 1.002998,-0.196999zm-3.972,-10.159c1.434998,-0.43 2.248001,-1.940998 1.817001,-3.375999l-0.014999,-0.052002c-0.431,-1.438999 -1.927002,-2.226997 -3.371002,-1.792c-1.434998,0.425003 -2.242001,1.957001 -1.807999,3.402c0.341999,1.176003 1.43,1.932003 2.588997,1.932003c0.265999,-0.000004 0.524002,-0.031002 0.788002,-0.114002zm-3.516003,-10.326c1.393002,-0.549 2.066002,-2.132999 1.512001,-3.519001l-0.021,-0.054001c-0.554001,-1.387997 -2.128002,-2.056 -3.516003,-1.483997c-1.392998,0.556999 -2.056,2.161999 -1.495998,3.555c0.424,1.051998 1.438999,1.698997 2.521,1.698997c0.328003,0.000999 0.674,-0.062 1,-0.196999zm-4.751999,32.466995c1.470001,-0.290001 2.428001,-1.719002 2.127998,-3.189003l-0.010998,-0.051994c-0.295002,-1.471001 -1.734001,-2.413002 -3.185001,-2.103004c-1.475998,0.290001 -2.423,1.75 -2.122997,3.210999c0.258999,1.294006 1.387997,2.185005 2.650997,2.185005c0.187,0.011002 0.368,-0.011002 0.540001,-0.052002zm-1.938,-10.727997c1.492001,-0.150002 2.574001,-1.481003 2.429001,-2.977997l-0.005001,-0.052002c-0.146,-1.486 -1.471001,-2.574001 -2.966999,-2.396999c-1.492001,0.144997 -2.579002,1.500999 -2.429001,2.993c0.139999,1.396996 1.32,2.443001 2.696999,2.443001c0.089001,0 0.182003,0 0.275002,-0.009003zm-1.417999,-10.822998c1.470001,-0.291 2.423,-1.715 2.127998,-3.189999l-0.010998,-0.052002c-0.284,-1.459999 -1.719002,-2.392998 -3.18,-2.091999c-1.470001,0.290001 -2.417999,1.740002 -2.123001,3.210999c0.260002,1.294003 1.389,2.18 2.651001,2.18c0.182999,0 0.362999,-0.016003 0.535,-0.056999zm-1.673,-10.771c1.471001,-0.289001 2.429001,-1.718998 2.128002,-3.188999l-0.010002,-0.052002c-0.296001,-1.467999 -1.750999,-2.404999 -3.186001,-2.097c-1.475998,0.285 -2.417999,1.737003 -2.121998,3.210003c0.264,1.289997 1.392998,2.181 2.649998,2.181c0.188,-0.000004 0.368999,-0.016003 0.540001,-0.053001zm-39.193001,29.069996l0.023,-0.052002c0.557,-1.388 -0.125,-2.939995 -1.521999,-3.488998c-1.375,-0.559998 -2.98,0.134003 -3.531,1.531998c-0.552,1.388 0.111,2.967003 1.509,3.521004c0.329,0.129997 0.676001,0.196999 1.004,0.196999c1.080001,0 2.092,-0.641998 2.517,-1.709zm3.743,-10.241997l0.021,-0.052002c0.557,-1.387997 -0.122,-2.940998 -1.514999,-3.494999c-1.38,-0.555 -2.98,0.139999 -3.537001,1.538002c-0.552,1.388 0.116,2.971996 1.509001,3.521c0.329,0.135002 0.672999,0.196999 1.002,0.196999c1.082999,0 2.101,-0.647003 2.52,-1.709zm3.83,-10.465l0.014999,-0.056999c0.435001,-1.438999 -0.393,-2.921001 -1.823,-3.346001c-1.459999,-0.454998 -2.959,0.403999 -3.383999,1.844002c-0.43,1.434998 0.381,2.945999 1.816999,3.375999c0.267,0.083 0.526001,0.113998 0.778999,0.113998c1.169001,0.000999 2.251001,-0.755001 2.596001,-1.931zm3.658001,-10.010002l0.021,-0.056999c0.557001,-1.393002 -0.122,-2.941002 -1.517,-3.498001c-1.366999,-0.562 -2.972,0.143002 -3.536999,1.538002c-0.552,1.385998 0.123999,2.965 1.511999,3.518997c0.329,0.135002 0.673,0.197002 1.007,0.197002c1.077,0.000999 2.088999,-0.646999 2.514,-1.699001zm4.421999,31.836002l0.016001,-0.053001c0.298,-1.470001 -0.663,-2.867996 -2.136,-3.163002c-1.458,-0.306 -2.895,0.684006 -3.198,2.153c-0.297001,1.466003 0.657999,2.900002 2.130999,3.190002c0.171001,0.045998 0.35,0.056999 0.536001,0.056999c1.261,0.012001 2.392,-0.878998 2.650999,-2.183998zm1.719,-11.028999l0.005001,-0.053001c0.151999,-1.490997 -0.940001,-2.790997 -2.434,-2.939999c-1.486,-0.176998 -2.817001,0.963001 -2.970001,2.449001c-0.15,1.490997 0.937,2.820999 2.427999,2.977997c0.091,0.010002 0.184,0.010002 0.274,0.010002c1.377001,-0.000999 2.552,-1.042 2.697001,-2.444zm1.632,-10.512001l0.01,-0.053001c0.296999,-1.469997 -0.663,-2.872997 -2.131001,-3.157997c-1.437,-0.326 -2.9,0.683998 -3.198,2.147999c-0.295,1.471001 0.657999,2.904999 2.125999,3.195c0.176001,0.035999 0.357,0.052002 0.541,0.052002c1.269001,-0.004002 2.392,-0.890003 2.652,-2.184002zm1.677,-10.776001l0.015999,-0.056999c0.295002,-1.463001 -0.662998,-2.868999 -2.138998,-3.160999c-1.447001,-0.301003 -2.905001,0.690998 -3.198,2.155998c-0.295,1.471001 0.657999,2.900002 2.132999,3.188999c0.167999,0.036999 0.35,0.053001 0.535999,0.053001c1.262001,0.000999 2.391001,-0.889999 2.652,-2.18z"/>
  </g>
  <g id="svg_3"/>
  <g id="svg_4"/>
  <g id="svg_5"/>
  <g id="svg_6"/>
  <g id="svg_7"/>
  <g id="svg_8"/>
  <g id="svg_9"/>
  <g id="svg_10"/>
  <g id="svg_11"/>
  <g id="svg_12"/>
  <g id="svg_13"/>
  <g id="svg_14"/>
  <g id="svg_15"/>
  <g id="svg_16"/>
  <g id="svg_17"/>
 </g>
</svg>