<?xml version="1.0" encoding="UTF-8"?>
<!DOCTYPE svg PUBLIC "-//W3C//DTD SVG 1.1//EN" "http://www.w3.org/Graphics/SVG/1.1/DTD/svg11.dtd">
<!-- Creator: CorelDRAW X7 -->
<svg xmlns="http://www.w3.org/2000/svg" xml:space="preserve" width="100%" height="100%" version="1.1" style="shape-rendering:geometricPrecision; text-rendering:geometricPrecision; image-rendering:optimizeQuality; fill-rule:evenodd; clip-rule:evenodd"
viewBox="0 0 15451 18062"
 xmlns:xlink="http://www.w3.org/1999/xlink">
 <defs>
  <style type="text/css">
   <![CDATA[
    .fil0 {fill:#FFFFFF}
    .fil1 {fill:#FFFFFF;fill-rule:nonzero}
   ]]>
  </style>
 </defs>
 <g id="Capa_x0020_1">
  <metadata id="CorelCorpID_0Corel-Layer"/>
  <path class="fil0" d="M5 1552c0,610 83,952 538,1403 298,294 591,520 591,1102l0 9948c0,572 -281,796 -573,1085 -908,897 -666,2294 384,2809 183,89 368,142 551,163l381 0c827,-95 1515,-796 1515,-1552 0,-600 -91,-961 -538,-1403 -295,-291 -591,-524 -591,-1102l0 -4409 3493 0c30,370 652,992 1023,1023 0,1117 1,2235 1,3352 0,602 -269,817 -575,1119 -551,545 -730,1342 -392,2033 169,344 432,607 776,776 191,93 387,146 581,163l301 0c838,-75 1565,-767 1565,-1552 0,-600 -90,-961 -537,-1403 -300,-296 -587,-517 -593,-1100 -11,-1127 2,-2261 2,-3388 370,-31 992,-653 1023,-1023 362,0 4056,24 4220,-13 212,-48 373,-233 398,-449l2 -5078c-1,-595 289,-802 592,-1101 1202,-1188 219,-2955 -1014,-2955 -550,0 -945,78 -1351,484 -668,669 -657,1766 54,2471 298,294 591,520 591,1102l0 4410 -3492 0c-31,-371 -653,-993 -1023,-1023 0,-1117 5,-2236 -1,-3353 -6,-1103 1129,-1149 1129,-2257 0,-525 -78,-945 -483,-1350 -293,-293 -680,-455 -1077,-484l-265 0c-397,29 -784,191 -1077,484 -671,670 -655,1769 54,2471 299,296 586,517 592,1100 11,1127 -1,2261 -1,3389 -371,30 -993,652 -1023,1023l-3493 0 0 -4410c0,-1143 1129,-928 1129,-2434 0,-873 -799,-1623 -1552,-1623 -526,0 -946,79 -1351,484 -104,103 -251,314 -320,456 -74,150 -164,407 -164,612z"/>
  <polygon class="fil1" points="10589,17462 10589,12439 12112,12439 13013,15865 13902,12439 15429,12439 15429,17462 14489,17462 14486,13508 13495,17462 12518,17462 11533,13508 11529,17462 "/>
 </g>
</svg>
